<svg width="46" height="49" viewBox="0 0 46 49" fill="none" xmlns="http://www.w3.org/2000/svg">
<path d="M23.0509 49L4.73428 43.9833L0.884277 0H45.2176L41.3676 43.9833L23.0509 49ZM9.05094 40.3667L23.0509 44.2167L37.0509 40.3667L40.0843 4.66667H6.01761L9.05094 40.3667Z" fill="black"/>
<path d="M11.3854 10.4998H34.7187L32.6187 35.3498L22.9354 38.4998L13.1354 36.0498L12.0854 27.6498H17.3354V31.8498L22.9354 32.8998L28.0687 31.8498V25.5498H12.0854L11.7354 20.2998C12.2149 19.8625 12.8366 19.6139 13.4854 19.5998C21.5354 19.5998 28.0687 20.2998 28.0687 20.2998V16.0998H12.0854L11.3854 10.4998Z" fill="black"/>
</svg>
