<svg width="50" height="49" viewBox="0 0 50 49" fill="none" xmlns="http://www.w3.org/2000/svg">
<path d="M0.217529 5.35937C0.217529 2.39947 2.617 0 5.5769 0H43.8582C46.8181 0 49.2175 2.39947 49.2175 5.35937V11.4844C49.2175 12.7529 48.1891 13.7812 46.9207 13.7812C45.6522 13.7812 44.6238 12.7529 44.6238 11.4844V5.35937C44.6238 4.93654 44.2811 4.59375 43.8582 4.59375H5.5769C5.15406 4.59375 4.81128 4.93654 4.81128 5.35937V43.6406C4.81128 44.0636 5.15406 44.4062 5.5769 44.4062H46.9207C48.1891 44.4062 49.2175 45.4346 49.2175 46.7031C49.2175 47.9716 48.1891 49 46.9207 49H5.5769C2.617 49 0.217529 46.6005 0.217529 43.6406V5.35937ZM25.4832 17.6094C26.7517 17.6094 27.78 18.6377 27.78 19.9062V32.1562C27.78 35.2334 26.9347 37.5413 25.1926 38.993C23.53 40.3784 21.5137 40.5781 20.1238 40.5781C18.8553 40.5781 17.8269 39.5497 17.8269 38.2812C17.8269 37.0128 18.8553 35.9844 20.1238 35.9844C21.1839 35.9844 21.8473 35.8012 22.2518 35.4641C22.5768 35.193 23.1863 34.4384 23.1863 32.1562V19.9062C23.1863 18.6377 24.2146 17.6094 25.4832 17.6094ZM34.7494 20.1516C36.0316 18.625 38.0415 17.6094 40.7957 17.6094C43.3525 17.6094 45.2816 18.4842 46.5819 19.8597C47.4532 20.7816 47.4122 22.2353 46.4904 23.1067C45.5686 23.9781 44.1148 23.9371 43.2435 23.0153C42.9069 22.6594 42.2363 22.2031 40.7957 22.2031C39.2623 22.2031 38.5925 22.7187 38.2669 23.1062C37.8661 23.5832 37.7332 24.1815 37.7332 24.5C37.7332 24.8185 37.8661 25.4168 38.2669 25.8938C38.5925 26.2813 39.2623 26.7969 40.7957 26.7969C41.0275 26.7969 41.2514 26.8312 41.4621 26.8951C43.4928 27.1842 45.0277 28.0908 46.0763 29.3391C47.2833 30.776 47.6863 32.4747 47.6863 33.6875C47.6863 34.9002 47.2833 36.599 46.0763 38.0359C44.7941 39.5626 42.7841 40.5781 40.03 40.5781C37.4731 40.5781 35.5441 39.7032 34.2437 38.3278C33.3725 37.406 33.4135 35.9522 34.3353 35.0806C35.2571 34.2093 36.7109 34.2504 37.5822 35.1722C37.9187 35.5281 38.5894 35.9844 40.03 35.9844C41.5634 35.9844 42.2332 35.4686 42.5587 35.0812C42.9596 34.6041 43.0925 34.006 43.0925 33.6875C43.0925 33.369 42.9596 32.7709 42.5587 32.2938C42.2332 31.9063 41.5634 31.3906 40.03 31.3906C39.7982 31.3906 39.5743 31.3563 39.3636 31.2923C37.3329 31.0032 35.798 30.0967 34.7494 28.8484C33.5424 27.4114 33.1394 25.7127 33.1394 24.5C33.1394 23.2872 33.5424 21.5886 34.7494 20.1516Z" fill="black"/>
</svg>
