<svg width="55" height="49" viewBox="0 0 55 49" fill="none" xmlns="http://www.w3.org/2000/svg">
<path d="M27.5128 19.6749C28.4572 19.6749 29.3804 19.9529 30.1663 20.4739C30.9522 20.9949 31.5656 21.7356 31.9293 22.6026C32.293 23.4697 32.3907 24.4245 32.2102 25.3467C32.0296 26.2689 31.5789 27.1174 30.9147 27.7853C30.2504 28.4531 29.4025 28.9106 28.4775 29.1C27.5525 29.2895 26.5918 29.2024 25.7165 28.8498C24.8411 28.4972 24.0902 27.8949 23.5582 27.1186C23.0262 26.3423 22.737 25.4268 22.7269 24.4873C22.7235 23.8586 22.8446 23.2355 23.0833 22.6534C23.322 22.0714 23.6736 21.5418 24.118 21.0949C24.5624 20.648 25.091 20.2926 25.6734 20.049C26.2559 19.8053 26.8809 19.6782 27.5128 19.6749ZM15.6631 44.8572C17.2755 45.8248 20.7818 44.3479 24.8767 40.5286C23.508 38.9812 22.2182 37.3666 21.0121 35.6907C18.9478 35.4607 16.8974 35.1207 14.8697 34.6722C13.5644 40.1212 14.0507 43.8641 15.6631 44.8572ZM17.4802 30.2418L16.738 28.9432C16.4487 29.6584 16.2009 30.3895 15.9958 31.133C16.6868 31.2857 17.4546 31.413 18.248 31.5404L17.4802 30.2418ZM34.2182 28.3066L36.2913 24.4873L34.2182 20.6679C33.4504 19.3184 32.6315 18.1217 31.8893 16.9249C30.5072 16.8485 29.0484 16.8485 27.5128 16.8485C25.9772 16.8485 24.5184 16.8485 23.1363 16.8485C22.3941 18.0453 21.5752 19.242 20.8074 20.5915L18.7343 24.4873L20.8074 28.3066C21.5752 29.6561 22.3941 30.8529 23.1363 32.0496C24.5184 32.0496 25.9772 32.0496 27.5128 32.0496C29.0484 32.0496 30.5072 32.0496 31.8893 32.0496C32.6315 30.8529 33.4504 29.6561 34.2182 28.3066ZM27.5128 11.1959C27.0265 11.7561 26.5147 12.3417 26.0028 13.0292H29.0228C28.5109 12.3417 27.9991 11.7561 27.5128 11.1959ZM27.5128 37.7786C27.9991 37.2185 28.5109 36.6328 29.0228 35.9453H26.0028C26.5147 36.6328 27.0265 37.2185 27.5128 37.7786ZM39.3369 4.11735C37.7501 3.14978 34.2182 4.6266 30.1489 8.44596C31.5176 9.99331 32.8074 11.608 34.0135 13.2838C36.0759 13.4802 38.1263 13.7862 40.1559 14.2005C41.4611 8.75151 40.9749 5.00854 39.3369 4.0155M37.5454 18.6309L38.2876 19.9295C38.5769 19.2143 38.8247 18.4832 39.0298 17.7397C38.3388 17.587 37.571 17.4596 36.7776 17.3323L37.5454 18.6309ZM41.2564 0.807242C45.0186 2.94608 45.4281 8.57327 43.8157 15.1426C50.3164 17.0522 55 20.235 55 24.5127C55 28.7904 50.3164 31.9732 43.8157 33.8829C45.4025 40.4522 44.993 46.0794 41.2564 48.2182C37.5198 50.3571 32.4267 47.9127 27.5128 43.2531C22.5989 47.9127 17.5058 50.3571 13.7436 48.2182C9.98139 46.0794 9.59749 40.5795 11.1843 33.8829C4.68357 31.9732 0 28.7904 0 24.5127C0 20.235 4.68357 17.0268 11.1843 15.1171C9.59749 8.54781 10.007 2.92062 13.7436 0.781779C17.4802 -1.35706 22.5989 1.08733 27.5128 5.74695C32.4267 1.08733 37.5198 -1.35706 41.2564 0.781779M40.5142 24.4873C41.4031 26.3617 42.1891 28.2827 42.8688 30.2418C48.2434 28.6376 51.2634 26.346 51.2634 24.4873C51.2634 22.6285 48.1666 20.3369 42.8688 18.7328C42.1891 20.6919 41.4031 22.6129 40.5142 24.4873ZM14.5114 24.4873C13.6225 22.6129 12.8365 20.6919 12.1568 18.7328C6.78222 20.3369 3.76222 22.6285 3.76222 24.4873C3.76222 26.346 6.859 28.6376 12.1568 30.2418C12.8365 28.2827 13.6225 26.3617 14.5114 24.4873ZM37.5454 30.2418L36.7776 31.5404C37.571 31.5404 38.3388 31.2857 39.0298 31.133C38.8247 30.3895 38.5769 29.6584 38.2876 28.9432L37.5454 30.2418ZM30.0721 40.5286C34.1415 44.3479 37.7501 45.8248 39.2601 44.8572C40.7701 43.8896 41.3844 40.223 40.0791 34.6722C38.0495 35.0865 35.9991 35.3925 33.9367 35.5889C32.7334 37.2995 31.4435 38.9482 30.0721 40.5286ZM17.4802 18.7328L18.248 17.4342C17.4546 17.4342 16.6868 17.6888 15.9958 17.8416C16.2009 18.585 16.4487 19.3162 16.738 20.0313L17.4802 18.7328ZM24.9535 8.44596C20.8074 4.6266 17.2755 3.14978 15.6631 4.11735C14.0507 5.08492 13.5644 8.75151 14.8697 14.3023C16.8993 13.888 18.9497 13.582 21.0121 13.3857C22.2403 11.6733 23.5559 10.0246 24.9535 8.44596Z" fill="black"/>
</svg>
