<svg width="49" height="49" viewBox="0 0 49 49" fill="none" xmlns="http://www.w3.org/2000/svg">
<path d="M0 5.35937C0 2.39947 2.39947 0 5.35937 0H43.6406C46.6005 0 49 2.39947 49 5.35937V11.4844C49 12.7529 47.9716 13.7812 46.7031 13.7812C45.4346 13.7812 44.4062 12.7529 44.4062 11.4844V5.35937C44.4062 4.93654 44.0636 4.59375 43.6406 4.59375H5.35937C4.93654 4.59375 4.59375 4.93654 4.59375 5.35937V43.6406C4.59375 44.0636 4.93654 44.4062 5.35937 44.4062H46.7031C47.9716 44.4062 49 45.4346 49 46.7031C49 47.9716 47.9716 49 46.7031 49H5.35937C2.39947 49 0 46.6005 0 43.6406V5.35937ZM25.2656 17.6094C26.5341 17.6094 27.5625 18.6377 27.5625 19.9062C27.5625 21.1748 27.5625 32.1562 27.5625 32.1562C27.5625 35.2334 27.5333 32.5036 27.5333 38.3833C27.5333 40.5682 27.0564 40.8333 25.2875 40.8333C23.45 40.8333 22.9687 40.2208 22.9687 39.1188C22.9687 37.8503 22.9687 39.4676 22.9687 37.1583C22.9687 34.849 22.9687 35.7292 22.9687 35.1722C22.9687 32.1562 22.9687 32.1562 22.9687 32.1562V19.9062C22.9687 18.6377 23.9971 17.6094 25.2656 17.6094ZM34.5318 20.1516C35.8141 18.625 37.824 17.6094 40.5781 17.6094C43.135 17.6094 45.0641 18.4842 46.3644 19.8597C47.2357 20.7816 47.1947 22.2353 46.2728 23.1067C45.351 23.9781 43.8973 23.9371 43.026 23.0153C42.6894 22.6594 42.0187 22.2031 40.5781 22.2031C39.0447 22.2031 38.375 22.7187 38.0494 23.1062C37.6485 23.5832 37.5156 24.1815 37.5156 24.5C37.5156 24.8185 37.6485 25.4168 38.0494 25.8938C38.375 26.2813 39.0447 26.7969 40.5781 26.7969C40.81 26.7969 41.0338 26.8312 41.2445 26.8951C43.2753 27.1842 44.8102 28.0908 45.8588 29.3391C47.0657 30.776 47.4687 32.4747 47.4687 33.6875C47.4687 34.9002 47.0657 36.599 45.8588 38.0359C44.5765 39.5626 42.5666 40.5781 39.8125 40.5781C37.2556 40.5781 35.3265 39.7032 34.0262 38.3278C33.1549 37.406 33.196 35.9522 34.1178 35.0806C35.0396 34.2093 36.4934 34.2504 37.3646 35.1722C37.7012 35.5281 38.3719 35.9844 39.8125 35.9844C41.3459 35.9844 42.0157 35.4686 42.3412 35.0812C42.7421 34.6041 42.875 34.006 42.875 33.6875C42.875 33.369 42.7421 32.7709 42.3412 32.2938C42.0157 31.9063 41.3459 31.3906 39.8125 31.3906C39.5807 31.3906 39.3568 31.3563 39.1461 31.2923C37.1154 31.0032 35.5804 30.0967 34.5318 28.8484C33.3249 27.4114 32.9219 25.7127 32.9219 24.5C32.9219 23.2872 33.3249 21.5886 34.5318 20.1516Z" fill="black"/>
<path d="M0 5.35937C0 2.39947 2.39947 0 5.35937 0H43.6406C46.6005 0 49 2.39947 49 5.35937V11.4844C49 12.7529 47.9716 13.7812 46.7031 13.7812C45.4346 13.7812 44.4062 12.7529 44.4062 11.4844V5.35937C44.4062 4.93654 44.0636 4.59375 43.6406 4.59375H5.35937C4.93654 4.59375 4.59375 4.93654 4.59375 5.35937V43.6406C4.59375 44.0636 4.93654 44.4062 5.35937 44.4062H46.7031C47.9716 44.4062 49 45.4346 49 46.7031C49 47.9716 47.9716 49 46.7031 49H5.35937C2.39947 49 0 46.6005 0 43.6406V5.35937ZM25.2656 17.6094C26.5341 17.6094 27.5625 18.6377 27.5625 19.9062C27.5625 21.1748 27.5625 32.1562 27.5625 32.1562C27.5625 35.2334 27.5333 32.5036 27.5333 38.3833C27.5333 40.5682 27.0564 40.8333 25.2875 40.8333C23.45 40.8333 22.9687 40.2208 22.9687 39.1188C22.9687 37.8503 22.9687 39.4676 22.9687 37.1583C22.9687 34.849 22.9687 35.7292 22.9687 35.1722C22.9687 32.1562 22.9687 32.1562 22.9687 32.1562V19.9062C22.9687 18.6377 23.9971 17.6094 25.2656 17.6094ZM34.5318 20.1516C35.8141 18.625 37.824 17.6094 40.5781 17.6094C43.135 17.6094 45.0641 18.4842 46.3644 19.8597C47.2357 20.7816 47.1947 22.2353 46.2728 23.1067C45.351 23.9781 43.8973 23.9371 43.026 23.0153C42.6894 22.6594 42.0187 22.2031 40.5781 22.2031C39.0447 22.2031 38.375 22.7187 38.0494 23.1062C37.6485 23.5832 37.5156 24.1815 37.5156 24.5C37.5156 24.8185 37.6485 25.4168 38.0494 25.8938C38.375 26.2813 39.0447 26.7969 40.5781 26.7969C40.81 26.7969 41.0338 26.8312 41.2445 26.8951C43.2753 27.1842 44.8102 28.0908 45.8588 29.3391C47.0657 30.776 47.4687 32.4747 47.4687 33.6875C47.4687 34.9002 47.0657 36.599 45.8588 38.0359C44.5765 39.5626 42.5666 40.5781 39.8125 40.5781C37.2556 40.5781 35.3265 39.7032 34.0262 38.3278C33.1549 37.406 33.196 35.9522 34.1178 35.0806C35.0396 34.2093 36.4934 34.2504 37.3646 35.1722C37.7012 35.5281 38.3719 35.9844 39.8125 35.9844C41.3459 35.9844 42.0157 35.4686 42.3412 35.0812C42.7421 34.6041 42.875 34.006 42.875 33.6875C42.875 33.369 42.7421 32.7709 42.3412 32.2938C42.0157 31.9063 41.3459 31.3906 39.8125 31.3906C39.5807 31.3906 39.3568 31.3563 39.1461 31.2923C37.1154 31.0032 35.5804 30.0967 34.5318 28.8484C33.3249 27.4114 32.9219 25.7127 32.9219 24.5C32.9219 23.2872 33.3249 21.5886 34.5318 20.1516Z" fill="black"/>
<path d="M18.3171 19.6L31.7921 19.6" stroke="black" stroke-width="4" stroke-linecap="round"/>
</svg>
