<svg width="46" height="43" viewBox="0 0 46 43" fill="none" xmlns="http://www.w3.org/2000/svg">
<path fill-rule="evenodd" clip-rule="evenodd" d="M23 0.500003C17.893 0.497379 12.9518 2.31278 9.06117 5.62113C5.17059 8.92948 2.58473 13.5147 1.7666 18.5558C0.948481 23.5969 1.95153 28.7646 4.59615 33.1335C7.24077 37.5025 11.3542 40.7874 16.2 42.4C17.28 42.6 17.67 41.94 17.67 41.4C17.67 40.86 17.67 39.54 17.67 37.75C11.67 39.05 10.43 34.87 10.43 34.87C10.0331 33.5474 9.16964 32.4139 7.99999 31.68C6.04999 30.35 8.14999 30.37 8.14999 30.37C8.83114 30.4653 9.48155 30.7149 10.0517 31.0996C10.6218 31.4843 11.0966 31.994 11.44 32.59C13.36 35.88 16.44 34.93 17.7 34.38C17.7995 33.2876 18.2852 32.2664 19.07 31.5C14.29 30.96 9.26999 29.12 9.26999 20.88C9.2383 18.7424 10.0337 16.6751 11.49 15.11C10.8283 13.2565 10.9035 11.2197 11.7 9.42C11.7 9.42 13.5 8.84 17.61 11.62C21.1324 10.66 24.8476 10.66 28.37 11.62C32.48 8.84 34.28 9.42 34.28 9.42C35.0704 11.2211 35.1455 13.2556 34.49 15.11C35.9436 16.6761 36.7354 18.7436 36.7 20.88C36.7 29.14 31.7 30.95 26.89 31.49C27.4061 32.0129 27.8036 32.6408 28.0555 33.331C28.3075 34.0212 28.4079 34.7576 28.35 35.49C28.35 38.36 28.35 40.68 28.35 41.39C28.35 42.1 28.74 42.63 29.83 42.39C34.6708 40.7711 38.7777 37.4828 41.4161 33.1132C44.0545 28.7437 45.0522 23.578 44.2309 18.5402C43.4095 13.5024 40.8225 8.92116 36.9328 5.616C33.0431 2.31084 28.1043 0.497374 23 0.500003Z" stroke="white" stroke-linecap="round" stroke-linejoin="round"/>
</svg>
