<svg width="44" height="44" viewBox="0 0 44 44" fill="none" xmlns="http://www.w3.org/2000/svg">
<path fill-rule="evenodd" clip-rule="evenodd" d="M22 34C28.6274 34 34 28.6274 34 22C34 15.3726 28.6274 10 22 10C15.3726 10 10 15.3726 10 22C10 28.6274 15.3726 34 22 34ZM22 30C26.4182 30 30 26.4182 30 22C30 17.5817 26.4182 14 22 14C17.5817 14 14 17.5817 14 22C14 26.4182 17.5817 30 22 30Z" fill="white"/>
<path d="M34 8C32.8954 8 32 8.89544 32 10C32 11.1046 32.8954 12 34 12C35.1046 12 36 11.1046 36 10C36 8.89544 35.1046 8 34 8Z" fill="white"/>
<path fill-rule="evenodd" clip-rule="evenodd" d="M1.30792 6.55212C0 9.11906 0 12.4794 0 19.2V24.8C0 31.5206 0 34.881 1.30792 37.4478C2.4584 39.7058 4.29416 41.5416 6.55212 42.692C9.11906 44 12.4794 44 19.2 44H24.8C31.5206 44 34.881 44 37.4478 42.692C39.7058 41.5416 41.5416 39.7058 42.692 37.4478C44 34.881 44 31.5206 44 24.8V19.2C44 12.4794 44 9.11906 42.692 6.55212C41.5416 4.29416 39.7058 2.4584 37.4478 1.30792C34.881 0 31.5206 0 24.8 0H19.2C12.4794 0 9.11906 0 6.55212 1.30792C4.29416 2.4584 2.4584 4.29416 1.30792 6.55212ZM24.8 4H19.2C15.7737 4 13.4445 4.00312 11.6442 4.1502C9.89048 4.29348 8.99368 4.55318 8.36808 4.87194C6.86278 5.63894 5.63894 6.86278 4.87194 8.36808C4.55318 8.99368 4.29348 9.89048 4.1502 11.6442C4.00312 13.4445 4 15.7737 4 19.2V24.8C4 28.2264 4.00312 30.5554 4.1502 32.3558C4.29348 34.1096 4.55318 35.0064 4.87194 35.632C5.63894 37.1372 6.86278 38.361 8.36808 39.128C8.99368 39.4468 9.89048 39.7066 11.6442 39.8498C13.4445 39.9968 15.7737 40 19.2 40H24.8C28.2264 40 30.5554 39.9968 32.3558 39.8498C34.1096 39.7066 35.0064 39.4468 35.632 39.128C37.1372 38.361 38.361 37.1372 39.128 35.632C39.4468 35.0064 39.7066 34.1096 39.8498 32.3558C39.9968 30.5554 40 28.2264 40 24.8V19.2C40 15.7737 39.9968 13.4445 39.8498 11.6442C39.7066 9.89048 39.4468 8.99368 39.128 8.36808C38.361 6.86278 37.1372 5.63894 35.632 4.87194C35.0064 4.55318 34.1096 4.29348 32.3558 4.1502C30.5554 4.00312 28.2264 4 24.8 4Z" fill="white"/>
</svg>
