<svg width="36" height="36" viewBox="0 0 36 36" fill="none" xmlns="http://www.w3.org/2000/svg">
<path d="M30.675 30.675H25.341V22.32C25.341 20.328 25.305 17.763 22.566 17.763C19.788 17.763 19.362 19.935 19.362 22.173V30.675H14.028V13.494H19.149V15.843H19.221C20.265 14.061 22.209 12.993 24.273 13.068C29.679 13.068 30.678 16.623 30.678 21.252L30.675 30.672V30.675ZM8.01 11.145C7.19062 11.1411 6.40588 10.8141 5.82621 10.235C5.24653 9.65584 4.91873 8.87142 4.914 8.05204C4.914 6.35404 6.312 4.95604 8.01 4.95604C9.708 4.95604 11.103 6.35404 11.106 8.05204C11.106 9.75004 9.708 11.145 8.01 11.145ZM10.677 30.675H5.337V13.494H10.677V30.675ZM33.33 4.45897e-05H2.655C1.95945 -0.0039953 1.29041 0.266623 0.793269 0.753093C0.296127 1.23956 0.011054 1.90257 0 2.59804V33.402C0.011054 34.0975 0.296127 34.7605 0.793269 35.247C1.29041 35.7335 1.95945 36.0041 2.655 36H33.333C34.0302 36.0057 34.7014 35.736 35.2008 35.2495C35.7002 34.763 35.9874 34.0991 36 33.402V2.59504C35.9874 1.89853 35.7 1.23523 35.2004 0.74971C34.7008 0.264191 34.0296 -0.00419476 33.333 0.00304437L33.33 4.45897e-05Z" fill="white"/>
</svg>
